<?xml version="1.0" standalone="no"?>
<!DOCTYPE svg PUBLIC "-//W3C//DTD SVG 20010904//EN"
 "http://www.w3.org/TR/2001/REC-SVG-20010904/DTD/svg10.dtd">
<svg version="1.0" xmlns="http://www.w3.org/2000/svg"
 width="360.000000pt" height="275.000000pt" viewBox="0 0 360.000000 275.000000"
 preserveAspectRatio="xMidYMid meet">

<g transform="translate(0.000000,275.000000) scale(0.100000,-0.100000)"
fill="#000000" stroke="none">
<path d="M1525 2166 c-706 -211 -898 -271 -925 -288 -18 -11 -40 -37 -51 -63
-19 -43 -20 -65 -17 -452 3 -446 4 -450 64 -490 14 -9 276 -92 582 -185 452
-136 568 -168 617 -168 49 0 165 31 620 166 308 91 574 175 592 186 17 10 41
38 52 62 20 41 21 58 21 439 0 427 -1 439 -53 491 -26 26 -25 26 -697 225
-387 115 -486 141 -535 141 -44 -1 -117 -18 -270 -64z m451 -70 c826 -243 969
-288 992 -312 l22 -25 0 -384 0 -384 -22 -25 c-17 -18 -64 -36 -183 -71 -88
-26 -340 -101 -560 -167 -333 -99 -408 -119 -445 -114 -25 3 -286 77 -580 166
-439 133 -539 166 -557 186 -23 25 -23 25 -23 404 0 268 3 387 12 405 13 29
-43 10 663 224 253 77 476 140 496 140 19 1 103 -19 185 -43z"/>
<path d="M930 1671 c-93 -29 -130 -75 -130 -165 0 -54 3 -61 38 -96 37 -37 77
-55 185 -85 92 -25 118 -65 77 -117 -38 -49 -126 -46 -215 7 l-54 33 -27 -35
c-24 -32 -25 -35 -9 -52 9 -11 44 -31 78 -47 121 -54 268 -31 317 49 65 106
13 216 -118 252 -141 39 -172 58 -172 104 0 34 25 59 68 67 30 6 32 9 32 50 0
39 -2 44 -22 43 -13 0 -34 -4 -48 -8z"/>
<path d="M1050 1635 l0 -45 60 0 c75 0 73 3 154 -222 76 -212 91 -242 124
-265 24 -16 55 -18 250 -21 l222 -3 0 45 0 46 -203 0 c-163 0 -207 3 -223 15
-10 8 -17 15 -14 15 3 1 77 3 166 4 183 2 196 6 238 78 29 51 56 139 56 183 0
64 -7 65 -306 65 l-269 0 -30 58 c-37 71 -74 92 -162 92 l-63 0 0 -45z m387
-211 c8 -21 -19 -46 -40 -38 -17 6 -23 35 -10 47 12 13 44 7 50 -9z m120 0 c8
-21 -19 -46 -40 -38 -17 6 -23 35 -10 47 12 13 44 7 50 -9z m120 0 c8 -21 -19
-46 -40 -38 -17 6 -23 35 -10 47 12 13 44 7 50 -9z m119 1 c7 -18 -13 -45 -33
-45 -17 0 -27 24 -19 45 7 20 45 19 52 0z m-299 -91 c8 -21 -19 -46 -40 -38
-17 6 -23 35 -10 47 12 13 44 7 50 -9z m120 0 c8 -21 -19 -46 -40 -38 -17 6
-23 35 -10 47 12 13 44 7 50 -9z m120 0 c8 -21 -19 -46 -40 -38 -17 6 -23 35
-10 47 12 13 44 7 50 -9z"/>
<path d="M2625 1534 c-6 -1 -22 -5 -37 -8 -15 -4 -43 -20 -63 -37 l-35 -31 0
36 0 36 -45 0 -45 0 0 -300 0 -300 45 0 45 0 0 110 0 109 51 -32 c90 -55 181
-40 253 44 109 128 43 338 -116 367 -24 5 -48 7 -53 6z m80 -115 c101 -89 45
-249 -88 -249 -42 0 -54 5 -82 33 -20 20 -36 48 -40 70 -11 57 3 107 40 144
29 29 40 33 84 33 42 0 56 -5 86 -31z"/>
<path d="M2030 1514 c-82 -36 -130 -111 -130 -204 0 -73 22 -121 78 -172 112
-101 308 -53 363 88 14 36 13 132 -1 170 -15 38 -66 91 -112 115 -46 23 -147
25 -198 3z m197 -107 c30 -33 33 -42 33 -98 0 -58 -2 -64 -39 -100 -36 -36
-43 -39 -95 -39 -50 0 -60 4 -93 33 -31 29 -37 41 -41 89 -8 103 48 162 147
155 47 -3 59 -9 88 -40z"/>
<path d="M1457 1032 c-53 -58 28 -137 83 -82 24 24 25 48 4 78 -19 27 -64 29
-87 4z"/>
<path d="M1634 1024 c-37 -55 25 -117 80 -80 18 11 26 25 26 45 0 59 -75 84
-106 35z"/>
</g>
</svg>
